<svg xmlns="http://www.w3.org/2000/svg" width="70" height="70" fill="none" viewBox="0 0 70 70">
  <path fill="#231F24" d="M5.2 65.74C10 70 15 70 35 70s25 0 29.8-4.26C70 61.122 70 54.782 70 35c0-19.783 0-26.123-5.2-30.74C60 0 55 0 35 0S10 0 5.2 4.26C0 8.878 0 15.218 0 35c0 19.783 0 26.123 5.2 30.74Z"/>
  <path fill="#DE7AE7" d="M29.56 23.8v7.68h4.5c1.04 0 1.74-.26 2.1-.78.36-.56.54-1.24.54-2.04v-2.04c0-.8-.18-1.46-.54-1.98-.36-.56-1.06-.84-2.1-.84h-4.5ZM27.4 56.2h-9.24c-.76 0-1.32-.16-1.68-.48-.32-.36-.48-.92-.48-1.68V15.16c0-.76.16-1.3.48-1.62.36-.36.92-.54 1.68-.54h19.98c4.48 0 7.56.94 9.24 2.82 1.72 1.84 2.58 4.24 2.58 7.2v2.76c0 1.68-.26 3.12-.78 4.32-.48 1.16-1.34 2-2.58 2.52 2.16.24 3.9 1.12 5.22 2.64 1.36 1.52 2.04 3.54 2.04 6.06v12.72c0 .76-.18 1.32-.54 1.68-.32.32-.86.48-1.62.48h-9.3c-.76 0-1.32-.16-1.68-.48-.32-.36-.48-.92-.48-1.68v-9.18c0-.88-.18-1.52-.54-1.92-.32-.44-.9-.66-1.74-.66h-8.4v11.76c0 .76-.18 1.32-.54 1.68-.32.32-.86.48-1.62.48Z"/>
</svg>
